<?xml version="1.0" encoding="UTF-8"?>
<!DOCTYPE svg PUBLIC "-//W3C//DTD SVG 1.1//EN" "http://www.w3.org/Graphics/SVG/1.1/DTD/svg11.dtd">
<!-- Creator: CorelDRAW -->
<svg xmlns="http://www.w3.org/2000/svg" xml:space="preserve" width="145.101mm" height="80mm" style="shape-rendering:geometricPrecision; text-rendering:geometricPrecision; image-rendering:optimizeQuality; fill-rule:evenodd; clip-rule:evenodd"
viewBox="0 0 65.5296 36.129"
 xmlns:xlink="http://www.w3.org/1999/xlink">
 <defs>
  <style type="text/css">
   <![CDATA[
    .str0 {stroke:#FFEC00;stroke-width:0.03201}
    .str1 {stroke:#1B1918;stroke-width:0.0630118}
    .fil3 {fill:none}
    .fil2 {fill:#DA251D}
    .fil1 {fill:#1B1918}
    .fil0 {fill:#FFEC00}
   ]]>
  </style>
   <mask id="id0">
  <linearGradient id="id1" gradientUnits="userSpaceOnUse" x1="10.3008" y1="25.8185" x2="4.72967" y2="-92.291">
   <stop offset="0" style="stop-opacity:1; stop-color:white"/>
   <stop offset="1" style="stop-opacity:0; stop-color:white"/>
  </linearGradient>
    <rect style="fill:url(#id1)" x="-21.5808" y="-92.259" width="58.192" height="118.045"/>
   </mask>
 </defs>
 <g id="Layer_x0020_1">
  <metadata id="CorelCorpID_0Corel-Layer"/>
  <path class="fil0" d="M4.73109 25.4398l3.74412 0 1.31821 -7.49416 0.053182 0 3.76861 8.72953 0.0838477 0 3.94525 -8.73075 0.0717074 0.000630118 1.29435 7.49475 3.74488 0 -3.71064 -18.7766 -0.0846458 0.00058811 -5.27127 11.8896 -0.064146 0 -5.16726 -11.8896 -0.0884686 0 -3.63771 18.776zm0 0z"/>
  <path class="fil0 str0" d="M55.5208 25.4308l-3.19167 -5.43531 -0.0844778 0 -3.15786 5.44779 -3.74412 0 5.07963 -8.84354 -5.66959 -9.94171 3.74425 0 3.7471 6.55344 0.085654 0 3.76281 -6.55344 3.74429 0 -5.66963 9.94171 5.09896 8.83165 -3.74534 -0.00058811zm0 0z"/>
  <path class="fil0" d="M44.4002 24.5449c0,5.72046 -4.63729,10.3573 -10.3573,10.3573 -5.72059,0 -10.358,-4.63687 -10.358,-10.3573 0,-2.45675 0.666875,-4.54882 1.75521,-6.68446 2.73757,-5.37423 7.18973,-12.6688 8.54541,-16.7661 1.38118,4.13089 6.09509,11.6783 8.4905,16.7961 1.09115,2.33244 1.92417,4.11417 1.92417,6.65438zm0 0z"/>
  <path class="fil1 str1" d="M26.1562 25.4781l3.12244 0 4.65947 -10.776 0.164377 -0.00058811 4.57209 10.7766 3.12244 0 -7.77322 -18.4924 -0.0838897 0 -7.78372 18.4924zm0 0z"/>
  <path class="fil2" style="mask:url(#id0)" d="M33.6968 23.823c0.841376,1.21378 -0.332156,1.96236 -1.59138,1.13892 -0.990545,-0.64919 -1.20008,-2.31707 -0.251585,-3.3789 1.38697,-1.55202 1.94975,-2.0202 1.44801,-3.99411 1.45167,0.902497 3.30837,4.00083 2.89296,5.82338 -0.283805,1.24419 -1.32846,1.85276 -1.93513,1.87166 1.14572,-1.32673 -0.823186,-1.49477 0.173534,-3.01759 -0.639486,0.032304 -1.14501,0.966559 -0.736398,1.55664z"/>
  <polygon class="fil1" points="34.2223,26.5467 35.325,26.5467 35.325,31.1164 34.2223,31.1164 "/>
  <path class="fil1" d="M31.4558 26.4547c1.04654,0 1.89468,1.07662 1.89468,2.40516 0,1.32858 -0.848139,2.4052 -1.89468,2.4052 -1.04604,0 -1.89401,-1.07662 -1.89401,-2.4052 0,-1.32854 0.847971,-2.40516 1.89401,-2.40516zm0 1.19071c0.528459,0 0.956897,0.543582 0.956897,1.21445 0,0.670908 -0.428438,1.21449 -0.956897,1.21449 -0.527997,0 -0.956267,-0.543582 -0.956267,-1.21449 0,-0.670866 0.42827,-1.21445 0.956267,-1.21445zm0 0z"/>
  <path class="fil1" d="M36.2015 26.5467l1.10287 0 0 3.56407 1.21903 0 0 1.00567 -2.3219 0 0 -4.56974zm0 0z"/>
  <rect class="fil3" width="65.5296" height="36.129"/>
 </g>
</svg>
